# xmcd
#
# Track frame offsets:
#	150
#	9171
#	17658
#	32247
#	45795
#	58475
#	73389
#	88041
#	100009
#	110901
#	121065
#	131905
#	155362
#	175493
#	190075
#	201630
#	215350
#	228405
#	244312
#	256006
#	270318
#
# Disc length: 3844 seconds
#
# Revision: 1
# Processed by: cddbd v1.5.2PL0 Copyright (c) Steve Scherf et al.
# Submitted via: audiograbber 1.83.01
#
DISCID=2a0f0215
DTITLE=Dr Feelgood - Gettin' Their Kicks At The BBC (With Wilko Johnson 1973-75
DTITLE=) (Disc1)
DYEAR=2015
DGENRE=R&B
TTITLE0=She Does It Right
TTITLE1=I Don't Mind
TTITLE2=Riot In Cell Block #9
TTITLE3=Tore Down
TTITLE4=Checkin' Up On My Baby
TTITLE5=I Can Tell
TTITLE6=She Does It Right
TTITLE7=My Babe (Your Babe)
TTITLE8=I'm Talkin' About You
TTITLE9=One Weekend
TTITLE10=I Don't Mind
TTITLE11=Rock Me Baby
TTITLE12=Bonie Moronie
TTITLE13=The More I Give
TTITLE14=Boom Boom
TTITLE15=All Through The City
TTITLE16=Talk To Me Baby
TTITLE17=She Does It Right
TTITLE18=Twenty Yards Behind
TTITLE19=The More I Give
TTITLE20=Don't You Just Know It
EXTD=
EXTT0=
EXTT1=
EXTT2=
EXTT3=
EXTT4=
EXTT5=
EXTT6=
EXTT7=
EXTT8=
EXTT9=
EXTT10=
EXTT11=
EXTT12=
EXTT13=
EXTT14=
EXTT15=
EXTT16=
EXTT17=
EXTT18=
EXTT19=
EXTT20=
PLAYORDER=
